<svg width="40" height="40" viewBox="0 0 40 40" fill="none" xmlns="http://www.w3.org/2000/svg">
<circle cx="20" cy="20" r="19" stroke="black" stroke-width="2"/>
<path d="M31.4609 20.7605C31.4609 27.117 27.108 31.6406 20.6797 31.6406C14.5164 31.6406 9.53906 26.6633 9.53906 20.5C9.53906 14.3367 14.5164 9.35938 20.6797 9.35938C23.6805 9.35938 26.2051 10.46 28.1502 12.2748L25.118 15.1902C21.1514 11.3629 13.7752 14.2379 13.7752 20.5C13.7752 24.3857 16.8793 27.5348 20.6797 27.5348C25.091 27.5348 26.7441 24.3723 27.0047 22.7326H20.6797V18.9008H31.2857C31.3891 19.4713 31.4609 20.0193 31.4609 20.7605Z" fill="black"/>
</svg>
