<svg width="40" height="40" viewBox="0 0 40 40" fill="none" xmlns="http://www.w3.org/2000/svg">
<circle cx="20" cy="20" r="19" stroke="black" stroke-width="2"/>
<path d="M13.9423 29.125H9.76992V15.6889H13.9423V29.125ZM11.8538 13.856C10.5197 13.856 9.4375 12.751 9.4375 11.4168C9.4375 10.7759 9.69208 10.1613 10.1452 9.70817C10.5984 9.25502 11.213 9.00044 11.8538 9.00044C12.4947 9.00044 13.1093 9.25502 13.5625 9.70817C14.0156 10.1613 14.2702 10.7759 14.2702 11.4168C14.2702 12.751 13.1876 13.856 11.8538 13.856ZM29.558 29.125H25.3946V22.5844C25.3946 21.0256 25.3632 19.0266 23.2254 19.0266C21.0561 19.0266 20.7237 20.7201 20.7237 22.4721V29.125H16.5558V15.6889H20.5575V17.5217H20.6159C21.1729 16.466 22.5336 15.3519 24.5636 15.3519C28.7863 15.3519 29.5625 18.1326 29.5625 21.7443V29.125H29.558Z" fill="black"/>
</svg>
