<svg width="40" height="40" viewBox="0 0 40 40" fill="none" xmlns="http://www.w3.org/2000/svg">
<circle cx="20" cy="20" r="19" stroke="black" stroke-width="2"/>
<path d="M29.6358 15.8154C29.6504 16.0197 29.6504 16.224 29.6504 16.4283C29.6504 22.6599 24.9074 29.8401 16.2386 29.8401C13.5679 29.8401 11.0869 29.0666 9 27.724C9.37946 27.7678 9.74427 27.7824 10.1383 27.7824C12.342 27.7824 14.3705 27.0381 15.9905 25.7684C13.9181 25.7246 12.1815 24.3674 11.5831 22.4994C11.875 22.5431 12.1669 22.5723 12.4734 22.5723C12.8966 22.5723 13.3198 22.5139 13.7138 22.4118C11.5539 21.974 9.93397 20.0768 9.93397 17.7855V17.7272C10.5615 18.0774 11.2912 18.2964 12.0647 18.3255C10.795 17.479 9.96317 16.0343 9.96317 14.3997C9.96317 13.5241 10.1966 12.7215 10.6053 12.0209C12.9257 14.8813 16.4137 16.7493 20.3248 16.9537C20.2519 16.6034 20.2081 16.2386 20.2081 15.8738C20.2081 13.276 22.3096 11.1599 24.9219 11.1599C26.2791 11.1599 27.505 11.7291 28.366 12.6485C29.4314 12.4442 30.4529 12.0501 31.3578 11.5102C31.0075 12.6047 30.2632 13.5242 29.2855 14.1079C30.2341 14.0058 31.1535 13.743 31.9999 13.3782C31.3579 14.3122 30.5552 15.144 29.6358 15.8154V15.8154Z" fill="black"/>
</svg>
